<svg xmlns="http://www.w3.org/2000/svg" viewBox="0 0 46.16 50.98" id="discord">
  <defs>
    <linearGradient id="a" x1="-.95" x2="47.12" y1="21.25" y2="29.73" gradientUnits="userSpaceOnUse">
      <stop offset="0" stop-color="#566af6"></stop>
      <stop offset="1" stop-color="#2c44b7"></stop>
    </linearGradient>
  </defs>
  <g style="isolation:isolate">
    <g>
      <g>
        <g>
          <path fill="url(#a)" d="M46.16,16.5v18c0,2.67-1.43,5.15-3.74,6.48l-14.6,8.43-.08.05-.13.07-.74.43-.05.03c-2.31,1.33-5.17,1.33-7.48,0l-15.59-9.01c-2.32-1.33-3.75-3.81-3.75-6.48v-18c0-2.68,1.43-5.15,3.75-6.49L19.34,1.01c2.31-1.34,5.17-1.34,7.48,0l15.6,9c2.31,1.34,3.74,3.81,3.74,6.49Z"></path>
          <path fill="#5569f5" d="M46.16,30.02v4.48c0,2.67-1.43,5.15-3.74,6.48l-14.6,8.43-.08.05-.13.07c-5.55-5.54-14.7-14.73-18.07-18.06-.48-5.03.47-10.13,3.98-15.36,1.77-.82,3.64-1.4,5.57-1.73.43.51.9.96,1.38,1.39,1.83-.22,3.68-.2,5.51.07.19-.46.47-1.03.71-1.46,1.92.33,3.79.9,5.56,1.72,2.29,2.35,8.98,9,13.91,13.92Z" style="mix-blend-mode:multiply"></path>
          <path fill="#fff" d="M32.25,16.01c-1.77-.81-3.64-1.39-5.56-1.72-.24.43-.52,1-.71,1.46-2.04-.3-4.12-.3-6.16,0-.22-.5-.46-.99-.73-1.46-1.92.33-3.79.91-5.56,1.73-3.51,5.23-4.46,10.34-3.99,15.37,2.06,1.53,4.37,2.7,6.82,3.44.55-.75,1.04-1.54,1.46-2.37-.8-.3-1.57-.67-2.3-1.1.19-.14.38-.29.56-.44,4.32,2.04,9.33,2.04,13.64,0,.18.15.37.3.56.44-.73.44-1.51.8-2.3,1.1.42.83.91,1.62,1.46,2.37,2.46-.75,4.76-1.91,6.82-3.44.56-5.83-.96-10.89-4.01-15.38ZM18.42,28.29c-1.33,0-2.42-1.22-2.42-2.71s1.07-2.72,2.42-2.72,2.44,1.22,2.42,2.72c-.01,1.5-1.07,2.72-2.42,2.72ZM27.37,28.29c-1.33,0-2.42-1.22-2.42-2.71s1.07-2.72,2.42-2.72,2.44,1.22,2.42,2.72c-.01,1.5-1.07,2.72-2.42,2.72Z"></path>
        </g>
      </g>
    </g>
  </g>
</svg>
